<svg width="21" height="20" viewBox="0 0 21 20" fill="none" xmlns="http://www.w3.org/2000/svg">
<path d="M10.9096 13.9116L17.5471 6.94534C17.6579 6.82911 17.7197 6.67468 17.7197 6.51409C17.7197 6.3535 17.6579 6.19908 17.5471 6.08284L17.5396 6.07534C17.4859 6.0188 17.4212 5.97377 17.3496 5.94301C17.2779 5.91224 17.2007 5.89637 17.1227 5.89637C17.0447 5.89637 16.9676 5.91224 16.8959 5.94301C16.8242 5.97377 16.7596 6.0188 16.7059 6.07534L10.4559 12.6353L4.20836 6.07534C4.15464 6.0188 4.08998 5.97378 4.01831 5.94301C3.94665 5.91224 3.86947 5.89638 3.79148 5.89638C3.71349 5.89638 3.63631 5.91224 3.56465 5.94301C3.49298 5.97378 3.42832 6.0188 3.37461 6.07534L3.3671 6.08285C3.2563 6.19908 3.19448 6.35351 3.19449 6.51409C3.19449 6.67468 3.2563 6.82911 3.3671 6.94534L10.0046 13.9116C10.063 13.9729 10.1332 14.0216 10.211 14.055C10.2887 14.0883 10.3725 14.1055 10.4571 14.1055C10.5417 14.1055 10.6255 14.0883 10.7032 14.055C10.781 14.0216 10.8512 13.9729 10.9096 13.9116Z" fill="#93000B"/>
</svg>
