<svg width="77" height="44" viewBox="0 0 77 44" fill="none" xmlns="http://www.w3.org/2000/svg">
<g clip-path="url(#clip0_1661_13070)">
<path d="M10.61 20.8878C6.30117 16.0317 6.3962 8.1785 9.55603 3.6326C11.1845 1.29013 13.3077 0.00230466 16.3228 0.0151401C31.0096 0.0771782 45.6986 0.107128 60.3854 0.00230466C64.4459 -0.0276448 67.0161 1.85703 68.4783 5.30336C70.7828 10.7349 70.2947 15.9568 66.6338 20.8899C67.1219 20.8899 67.5884 20.9134 68.0506 20.8856C70.9556 20.7188 73.0744 22.0622 74.6467 24.3384C76.6143 27.1878 77.2105 30.3988 76.9362 33.7874C76.7245 36.4101 75.9707 38.8596 74.3163 40.9753C72.7504 42.9733 70.7547 43.9938 68.1327 43.9895C48.5128 43.9552 28.893 43.9403 9.27525 44.0023C6.09167 44.013 3.78281 42.7188 2.24934 40.1367C-0.705308 35.1629 -0.733386 30.0309 2.07223 24.9994C3.62299 22.2184 6.03335 20.6075 9.4286 20.8856C9.76769 20.9113 10.1111 20.8878 10.61 20.8878ZM27.7547 23.1233C28.2385 23.7886 28.6899 24.2956 29.0031 24.8753C29.2882 25.4016 29.6359 25.5363 30.2126 25.5363C38.5387 25.5171 46.867 25.5235 55.1932 25.5235C55.4632 25.5235 55.7331 25.5085 56.001 25.5363C56.6316 25.5984 56.9815 25.9727 57.0096 26.5846C57.0377 27.237 56.6856 27.6435 56.0355 27.7505C55.772 27.7932 55.4977 27.7676 55.2277 27.7676C47.2774 27.7676 39.3292 27.7676 31.3789 27.7676C31.0722 27.7676 30.7677 27.7676 30.4394 27.7676C30.6705 29.0083 30.8778 30.1272 31.1003 31.3187C31.6964 31.3187 32.2839 31.3187 32.8714 31.3187C34.7569 31.3187 36.6446 31.3123 38.5301 31.3209C39.4437 31.3251 39.9815 31.7637 39.9837 32.4675C39.9837 33.182 39.4804 33.5778 38.5301 33.6034C38.3141 33.6099 38.0981 33.6056 37.8843 33.6056C35.8368 33.6056 33.7871 33.6227 31.7396 33.5949C31.191 33.5863 31.0247 33.7724 30.934 34.303C30.7461 35.4004 30.5884 36.5363 30.1608 37.5482C29.556 38.9772 28.718 40.3078 27.975 41.6898C28.0441 41.6941 28.2213 41.7155 28.3962 41.7155C41.7893 41.7176 55.1824 41.7262 68.5755 41.6898C69.3422 41.6876 70.2169 41.4545 70.8519 41.0416C73.502 39.3302 74.2644 36.6219 74.6683 33.6056C74.2126 33.6056 73.8692 33.6056 73.5279 33.6056C65.3897 33.6056 57.2515 33.6056 49.1133 33.6034C48.7914 33.6034 48.4653 33.6056 48.1457 33.5671C47.5215 33.4943 47.1651 33.1135 47.1392 32.5081C47.1111 31.8514 47.5128 31.4706 48.137 31.3422C48.3962 31.2888 48.6748 31.3166 48.9426 31.3166C57.1608 31.3166 65.3811 31.3166 73.5992 31.3166C73.9167 31.3166 74.2342 31.3166 74.6489 31.3166C74.4848 29.233 73.9534 27.3718 72.8238 25.6989C71.6683 23.9854 70.1176 23.0955 67.9534 23.1019C54.8843 23.1404 41.8152 23.1211 28.7439 23.1211C28.4524 23.1233 28.1629 23.1233 27.7547 23.1233ZM65.7115 18.2073C65.204 18.2073 64.8886 18.2073 64.5755 18.2073C53.9038 18.2073 43.2321 18.2073 32.5603 18.2073C32.2644 18.2073 31.9664 18.2137 31.6727 18.1902C31.0506 18.1388 30.6791 17.803 30.6273 17.1783C30.5733 16.5087 30.9448 16.1215 31.5647 15.9739C31.8454 15.9076 32.1543 15.9375 32.4502 15.9375C43.5798 15.9354 54.7115 15.9354 65.8411 15.9354C66.1608 15.9354 66.4804 15.9354 66.7742 15.9354C67.677 13.7534 67.7418 10.4889 67.0333 7.84692C66.8519 7.17092 66.5863 6.92276 65.8411 6.92704C57.407 6.95699 48.9707 6.9463 40.5344 6.9463C40.2644 6.9463 39.9902 6.97411 39.7267 6.92918C39.1133 6.8265 38.7504 6.4179 38.7612 5.82533C38.7698 5.20281 39.1305 4.77924 39.8044 4.7172C40.0182 4.69795 40.2364 4.71078 40.4502 4.71078C48.4804 4.71078 56.5128 4.71078 64.5431 4.71078C64.8238 4.71078 65.1068 4.71078 65.5452 4.71078C64.3616 3.19192 63.0765 2.28916 61.2342 2.2913C47.975 2.30199 34.7159 2.29772 21.4567 2.29772C21.2018 2.29772 20.947 2.29772 20.5344 2.29772C22.5884 4.73859 23.6791 7.40409 23.8714 10.4696C24.245 10.4696 24.5625 10.4696 24.8822 10.4696C31.9426 10.4696 39.0031 10.4696 46.0636 10.4696C46.3336 10.4696 46.6035 10.4568 46.8714 10.4846C47.502 10.5488 47.8584 10.9424 47.8886 11.535C47.921 12.1789 47.5387 12.5811 46.8973 12.6987C46.6619 12.7415 46.4135 12.7137 46.1716 12.7137C39.0571 12.7137 31.9426 12.7137 24.8282 12.7137C24.5128 12.7137 24.1997 12.7137 23.8584 12.7137C23.6856 15.8199 22.5539 18.4661 20.5517 20.8578C20.7871 20.8749 20.8865 20.8899 20.9858 20.8899C34.461 20.8899 47.9362 20.8985 61.4113 20.8813C63.2709 20.8749 64.5582 19.831 65.7115 18.2073ZM2.36597 32.5445C2.36813 34.8207 2.89728 37.561 4.84545 39.8436C7.00311 42.3722 9.86921 42.3337 12.0096 39.7923C15.1435 36.07 15.2321 29.1046 12.1932 25.2882C9.88864 22.3938 6.7245 22.4366 4.51067 25.4123C3.07439 27.3419 2.4934 29.5603 2.36597 32.5445ZM21.5884 11.1178C21.5625 8.98714 20.9815 6.58048 19.407 4.49258C17.204 1.57465 13.9318 1.58962 11.7223 4.50328C8.83897 8.30686 8.83465 14.8487 11.7137 18.6394C13.9448 21.5766 17.1413 21.598 19.3919 18.6865C19.6208 18.3913 19.8282 18.0768 20.0161 17.7538C21.1305 15.837 21.5906 13.7512 21.5884 11.1178ZM28.7699 32.3156C28.7439 31.8792 28.7439 31.3701 28.6791 30.8673C28.3508 28.3794 27.5733 26.084 25.6403 24.3362C23.9318 22.7917 21.8519 22.7104 20.083 24.1715C19.4329 24.7085 18.8735 25.393 18.4113 26.0968C17.3768 27.6692 16.9146 29.4533 16.772 31.308C16.5474 34.2645 17.083 37.0626 18.9016 39.4864C21.1478 42.477 24.3681 42.4407 26.6273 39.4607C26.6748 39.3965 26.718 39.3281 26.7634 39.2617C28.2169 37.1952 28.7331 34.857 28.7699 32.3156ZM13.4956 23.1532C14.2277 24.2763 14.9146 25.3267 15.5776 26.3386C16.2623 25.2796 16.9448 24.2271 17.6403 23.1532C16.2342 23.1532 14.8735 23.1532 13.4956 23.1532ZM15.5711 38.5109C14.8865 39.5698 14.2148 40.603 13.5344 41.6556C14.9059 41.6556 16.2666 41.6556 17.6165 41.6556C16.9189 40.5817 16.245 39.5463 15.5711 38.5109Z" fill="#93000B"/>
<path d="M43.3228 38.9624C41.1435 38.9624 38.9621 38.9645 36.7828 38.9581C36.5172 38.9581 36.2386 38.9538 35.988 38.879C35.4373 38.7099 35.1327 38.3078 35.1759 37.7366C35.2191 37.174 35.5474 36.7889 36.1349 36.7204C36.5604 36.6712 36.9945 36.6755 37.4243 36.6755C41.4351 36.6734 45.4437 36.6734 49.4545 36.6734C49.6424 36.6734 49.8304 36.6712 50.0204 36.6755C51.0463 36.6969 51.5193 37.0756 51.4956 37.85C51.474 38.5752 50.9815 38.9581 50.0247 38.9602C47.7893 38.9667 45.5561 38.9624 43.3228 38.9624Z" fill="#93000B"/>
<path d="M63.9538 36.6771C65.2713 36.6771 66.5909 36.6686 67.9084 36.6814C68.8264 36.69 69.3728 37.1328 69.3663 37.8195C69.3598 38.519 68.8112 38.9597 67.902 38.9618C65.2389 38.9683 62.5737 38.9683 59.9106 38.9618C59.0099 38.9597 58.457 38.5062 58.457 37.8131C58.457 37.12 58.9905 36.6921 59.9192 36.6835C61.2627 36.6664 62.6082 36.6771 63.9538 36.6771Z" fill="#93000B"/>
<path d="M62.8783 25.5301C63.4139 25.5323 63.9539 25.5045 64.4874 25.5387C65.144 25.5793 65.5133 25.9516 65.5435 26.6104C65.5716 27.2415 65.1375 27.7357 64.4722 27.7549C63.3729 27.787 62.2714 27.7849 61.172 27.7571C60.5133 27.74 60.0316 27.2415 60.064 26.6361C60.1008 25.9537 60.483 25.5601 61.185 25.5344C61.7509 25.513 62.3146 25.5301 62.8783 25.5301Z" fill="#93000B"/>
<path d="M55.3002 10.4692C56.0259 10.4692 56.7516 10.4521 57.4751 10.4735C58.1749 10.4949 58.5658 10.8735 58.5874 11.573C58.6069 12.202 58.1641 12.6833 57.4902 12.6961C56.0129 12.7218 54.5356 12.7218 53.0583 12.6961C52.3671 12.6833 51.9697 12.2875 51.946 11.588C51.9265 10.9355 52.3412 10.5013 53.0432 10.4756C53.7948 10.4478 54.5486 10.4713 55.3002 10.4692Z" fill="#93000B"/>
<path d="M30.669 6.94212C30.0232 6.94212 29.3774 6.95496 28.7316 6.93785C28.0275 6.91859 27.6387 6.51641 27.5783 5.84469C27.5221 5.22645 28.0577 4.72159 28.7618 4.71303C29.9994 4.69592 31.237 4.69592 32.4746 4.71303C33.1895 4.72159 33.6841 5.20506 33.6733 5.83613C33.6647 6.46079 33.1657 6.92073 32.4444 6.93999C31.8526 6.9571 31.2608 6.94426 30.669 6.94212Z" fill="#93000B"/>
<path d="M8.43586 39.7965C7.0838 39.8115 6.16372 39.0713 5.43586 38.0531C4.59352 36.8743 4.18316 35.5202 4.02549 34.1061C3.76631 31.7658 3.92182 29.4725 5.09244 27.3525C5.64752 26.345 6.38834 25.5149 7.55465 25.1834C7.83326 25.1042 8.13564 25.0614 8.42506 25.0636C9.10108 25.0721 9.48553 25.4914 9.53521 26.1075C9.58272 26.6979 9.24579 27.1814 8.63888 27.2584C7.86134 27.3547 7.42074 27.8189 7.127 28.4307C5.84622 31.0919 5.83326 33.781 7.13564 36.4315C7.71663 37.6102 8.15292 37.683 9.32139 37.0647C9.8743 36.7716 10.3711 36.8658 10.7641 37.3364C11.1659 37.8156 11.1378 38.3312 10.721 38.7847C10.114 39.4436 9.3473 39.7858 8.43586 39.7965Z" fill="#93000B"/>
<path d="M12.8652 33.3018C12.8156 33.6484 12.7788 34.1789 12.6557 34.6923C12.5132 35.2892 12.0618 35.5759 11.457 35.5117C10.8091 35.4454 10.4311 35.0282 10.4376 34.3907C10.4462 33.6783 10.5002 32.9596 10.6233 32.2579C10.7292 31.6461 11.1525 31.2674 11.8156 31.3145C12.47 31.3615 12.8199 31.7573 12.8631 32.4034C12.8782 32.6408 12.8652 32.8804 12.8652 33.3018Z" fill="#93000B"/>
<path d="M19.9724 12.5171C19.9141 13.8542 19.5664 15.2704 18.7888 16.5539C17.1106 19.3306 13.9962 19.4077 12.4109 16.5903C10.5664 13.3108 10.6225 9.89443 12.3979 6.57432C13.0242 5.40202 14.0221 4.58269 15.4756 4.5399C16.1387 4.52065 16.5577 4.83298 16.6916 5.46833C16.8169 6.06518 16.4217 6.66631 15.7629 6.74974C15.0523 6.83745 14.6204 7.24605 14.3396 7.80011C13.0739 10.2988 13.048 12.8402 14.3223 15.326C15.0394 16.7229 16.1106 16.74 16.7888 15.3388C17.264 14.3569 17.4173 13.2188 17.6938 12.1471C17.778 11.8155 17.6787 11.362 17.8709 11.1523C18.1582 10.84 18.642 10.5127 19.0221 10.5341C19.3525 10.5533 19.7456 10.9983 19.9422 11.3491C20.0912 11.6101 19.9724 12.0208 19.9724 12.5171Z" fill="#93000B"/>
<path d="M20.3341 32.4457C20.697 33.7549 20.995 35.0706 21.4378 36.337C21.6646 36.9852 22.1527 37.4858 22.9713 37.5927C23.6106 37.6783 23.9324 38.1682 23.8503 38.8228C23.7682 39.4838 23.3492 39.7897 22.684 39.7919C21.5976 39.794 20.779 39.2613 20.1203 38.4762C18.8805 36.998 18.427 35.2353 18.3125 33.3613C18.1743 31.1386 18.4097 28.9844 19.63 27.0463C21.3147 24.3722 24.17 24.3594 25.8589 27.0249C26.9065 28.6785 27.2564 30.5289 27.211 32.4585C27.1959 33.1281 26.7078 33.5645 26.0641 33.5346C25.3557 33.5004 25.0641 33.0875 24.9475 32.4115C24.7294 31.1622 24.4983 29.9064 24.1397 28.6913C23.9475 28.0453 23.4831 27.2345 22.7272 27.38C22.198 27.4827 21.5911 28.1415 21.3751 28.6892C20.9151 29.8594 20.6862 31.1194 20.3341 32.4457Z" fill="#93000B"/>
</g>
<defs>
<clipPath id="clip0_1661_13070">
<rect width="77" height="44" fill="white"/>
</clipPath>
</defs>
</svg>
