<svg width="121" height="55" viewBox="0 0 121 55" fill="none" xmlns="http://www.w3.org/2000/svg">
<path d="M30.8908 51.8768C23.6882 51.8768 16.4729 52.1322 9.28313 51.8002C2.3876 51.4937 -0.669965 46.2068 0.916388 39.63C1.76074 36.0926 5.33003 33.5513 9.8972 33.7684C13.7991 33.96 16.5496 36.1309 17.3172 39.911C17.765 42.1075 16.7671 44.6233 14.9761 45.8237C12.878 47.2284 9.90999 47.305 8.02939 46.0025C6.44304 44.9042 5.80338 42.9248 6.3407 40.8432C6.80125 39.0681 8.00381 38.0337 9.99954 37.9699C10.5113 37.9571 11.2917 38.5445 11.4836 39.0426C11.6115 39.3618 10.9462 40.3963 10.5624 40.4473C9.11681 40.6389 8.72023 41.469 8.88654 42.6694C9.06564 43.9464 10.1275 44.1635 11.1893 44.2018C13.6968 44.304 15.2064 42.4267 14.5667 39.9876C14.0678 38.0976 12.878 36.8333 10.9462 36.463C8.69464 36.0415 6.57097 36.4757 4.88227 38.1359C2.92492 40.077 2.78419 42.414 3.55178 44.9042C4.35775 47.5221 6.3279 48.6842 8.86095 49.0801C9.87161 49.2334 10.8951 49.2844 11.9185 49.2844C25.1978 49.2972 38.4899 49.2844 51.7693 49.2972C52.3322 49.2972 52.9718 49.1823 53.4324 49.4122C53.8929 49.642 54.4558 50.2295 54.4558 50.6509C54.4558 51.0723 53.8418 51.5576 53.4068 51.8896C53.1637 52.0684 52.716 51.979 52.3577 51.979C45.1936 51.9918 30.8908 51.9151 30.8908 51.8768Z" fill="#750009"/>
<path d="M37.7992 36.5014C32.797 36.5014 27.7949 36.6929 22.8055 36.4503C16.4345 36.1566 12.5966 30.5121 14.3748 24.3823C15.3599 20.9853 17.9186 19.2486 21.2064 18.5462C25.9655 17.5246 29.7906 19.8615 30.8141 24.2929C31.377 26.7192 30.4687 29.1839 28.5113 30.4993C26.5923 31.7891 23.087 31.8785 21.3983 30.5631C19.7864 29.2989 19.4282 27.5749 19.8631 25.621C20.2597 23.8587 21.4111 22.837 23.0998 22.6327C23.7139 22.5561 24.7373 23.0669 24.9932 23.5905C25.4026 24.4333 24.7885 24.9825 23.8162 25.289C23.2405 25.4677 22.4729 26.2467 22.4729 26.7448C22.4729 27.3961 23.0102 28.3283 23.5859 28.6348C25.684 29.7331 28.1787 28.0474 28.1787 25.6721C28.1787 23.2585 26.5156 21.4195 24.0721 21.1897C21.5262 20.947 19.2363 21.5217 17.7011 23.6799C16.1659 25.8381 16.4345 28.3028 17.4068 30.5248C18.264 32.4915 20.0678 33.6663 22.2554 33.7685C25.7608 33.9473 29.2789 33.9473 32.7842 33.9601C39.4239 33.9856 46.0635 33.9728 52.6904 33.9728C53.6371 33.9728 54.507 34.2027 54.4943 35.3393C54.4815 36.3992 53.6755 36.6418 52.78 36.6418C47.7906 36.6546 37.7992 36.5524 37.7992 36.5014Z" fill="#750009"/>
<path d="M34.3577 20.8448C27.8588 19.5039 26.6818 13.3103 27.91 8.9556C29.1893 4.44765 34.959 1.84249 39.6797 3.50264C42.9548 4.65198 45.0273 8.29154 44.3492 11.7012C43.5433 15.6728 38.2469 17.7033 34.9718 15.3025C33.1296 13.9488 33.0273 12.0205 33.4238 10.0666C33.7565 8.47033 34.9334 7.58917 36.5326 7.28268C37.4793 7.10389 38.3492 7.20606 38.5411 8.31708C38.7202 9.27486 38.2725 9.84953 37.2106 9.91338C36.1488 9.97723 35.7394 10.8712 35.9441 11.6374C36.136 12.3398 36.9036 13.3997 37.4281 13.3997C38.6051 13.3997 39.9867 13.1187 40.9207 12.4419C42.0592 11.6374 41.8418 10.1432 41.4452 8.90452C40.588 6.23551 37.8119 5.09894 34.6136 6.01841C31.4025 6.93788 29.9441 9.27486 30.2895 12.94C30.571 15.9921 32.7714 18.2652 36.0465 18.4312C40.588 18.6611 45.1296 18.61 49.684 18.6866C50.6051 18.6994 51.5262 18.725 52.4473 18.7122C53.4196 18.6866 54.4558 18.6866 54.4814 19.9637C54.507 21.3429 53.3812 21.3301 52.3833 21.3429C49.7224 21.3429 47.0614 21.3429 44.4132 21.3429C44.426 21.4067 37.62 21.5217 34.3577 20.8448Z" fill="#750009"/>
<g clip-path="url(#clip0_31_2721)">
<path d="M90.074 51.8768C97.2766 51.8768 104.492 52.1322 111.682 51.8002C118.577 51.4937 121.635 46.2068 120.048 39.63C119.204 36.0926 115.635 33.5513 111.068 33.7684C107.166 33.96 104.415 36.1309 103.648 39.911C103.2 42.1075 104.198 44.6233 105.989 45.8237C108.087 47.2284 111.055 47.305 112.935 46.0025C114.522 44.9042 115.161 42.9248 114.624 40.8432C114.164 39.0681 112.961 38.0337 110.965 37.9699C110.454 37.9571 109.673 38.5445 109.481 39.0426C109.353 39.3618 110.019 40.3963 110.402 40.4473C111.848 40.6389 112.245 41.469 112.078 42.6694C111.899 43.9464 110.837 44.1635 109.776 44.2018C107.268 44.304 105.758 42.4267 106.398 39.9876C106.897 38.0976 108.087 36.8333 110.019 36.463C112.27 36.0415 114.394 36.4757 116.083 38.1359C118.04 40.077 118.181 42.414 117.413 44.9042C116.607 47.5221 114.637 48.6842 112.104 49.0801C111.093 49.2334 110.07 49.2844 109.046 49.2844C95.767 49.2972 82.4749 49.2844 69.1956 49.2972C68.6327 49.2972 67.993 49.1823 67.5325 49.4122C67.0719 49.642 66.509 50.2295 66.509 50.6509C66.509 51.0723 67.1231 51.5576 67.5581 51.8896C67.8011 52.0684 68.2489 51.979 68.6071 51.979C75.7713 51.9918 90.074 51.9151 90.074 51.8768Z" fill="#750009"/>
<path d="M83.1657 36.5014C88.1678 36.5014 93.17 36.6929 98.1593 36.4503C104.53 36.1566 108.368 30.5121 106.59 24.3823C105.605 20.9853 103.046 19.2486 99.7584 18.5462C94.9994 17.5246 91.1742 19.8615 90.1508 24.2929C89.5879 26.7192 90.4962 29.1839 92.4535 30.4993C94.3725 31.7891 97.8778 31.8785 99.5665 30.5631C101.178 29.2989 101.537 27.5749 101.102 25.621C100.705 23.8587 99.5538 22.837 97.8651 22.6327C97.251 22.5561 96.2275 23.0669 95.9717 23.5905C95.5623 24.4333 96.1764 24.9825 97.1486 25.289C97.7243 25.4677 98.4919 26.2467 98.4919 26.7448C98.4919 27.3961 97.9546 28.3283 97.3789 28.6348C95.2808 29.7331 92.7862 28.0474 92.7862 25.6721C92.7862 23.2585 94.4493 21.4195 96.8928 21.1897C99.4386 20.947 101.729 21.5217 103.264 23.6799C104.799 25.8381 104.53 28.3028 103.558 30.5248C102.701 32.4915 100.897 33.6663 98.7094 33.7685C95.2041 33.9473 91.6859 33.9473 88.1806 33.9601C81.541 33.9856 74.9013 33.9728 68.2744 33.9728C67.3277 33.9728 66.4578 34.2027 66.4706 35.3393C66.4834 36.3992 67.2894 36.6418 68.1849 36.6418C73.1742 36.6546 83.1657 36.5524 83.1657 36.5014Z" fill="#750009"/>
<path d="M86.6071 20.8448C93.106 19.5039 94.283 13.3103 93.0549 8.9556C91.7755 4.44765 86.0058 1.84249 81.2851 3.50264C78.0101 4.65198 75.9376 8.29154 76.6156 11.7012C77.4216 15.6728 82.718 17.7033 85.993 15.3025C87.8352 13.9488 87.9376 12.0205 87.541 10.0666C87.2084 8.47033 86.0314 7.58917 84.4323 7.28268C83.4856 7.10389 82.6156 7.20606 82.4237 8.31708C82.2446 9.27486 82.6924 9.84953 83.7542 9.91338C84.816 9.97723 85.2254 10.8712 85.0207 11.6374C84.8288 12.3398 84.0613 13.3997 83.5367 13.3997C82.3598 13.3997 80.9781 13.1187 80.0442 12.4419C78.9056 11.6374 79.1231 10.1432 79.5197 8.90452C80.3768 6.23551 83.1529 5.09894 86.3512 6.01841C89.5623 6.93788 91.0207 9.27486 90.6753 12.94C90.3939 15.9921 88.1934 18.2652 84.9184 18.4312C80.3768 18.6611 75.8352 18.61 71.2809 18.6866C70.3598 18.6994 69.4387 18.725 68.5175 18.7122C67.5453 18.6866 66.509 18.6866 66.4834 19.9637C66.4578 21.3429 67.5836 21.3301 68.5815 21.3429C71.2425 21.3429 73.9035 21.3429 76.5517 21.3429C76.5389 21.4067 83.3448 21.5217 86.6071 20.8448Z" fill="#750009"/>
</g>
<defs>
<clipPath id="clip0_31_2721">
<rect width="55" height="55" fill="white" transform="matrix(-1 0 0 1 120.965 0)"/>
</clipPath>
</defs>
</svg>
