<svg width="54" height="61" viewBox="0 0 54 61" fill="none" xmlns="http://www.w3.org/2000/svg">
<path d="M40.6181 0.0031571C41.0833 0.364645 41.2324 0.797167 41.1538 1.39544C40.9474 2.96767 40.8229 4.54938 40.6624 6.1595C41.4454 5.67646 42.1514 5.17291 42.918 4.77985C45.0081 3.71117 47.2113 3.32758 49.5455 3.90849C50.0795 4.04109 50.3924 4.29997 50.4596 4.86193C50.8068 7.81224 49.5979 10.1959 47.5749 12.2827C47.131 12.7405 46.6183 13.1367 46.0679 13.6229C46.2727 13.7081 46.4463 13.7823 46.6216 13.8549C49.4259 15.0057 51.6144 16.8116 53.0133 19.4493C53.6144 20.5827 53.9584 21.7871 53.9945 23.0705C54.0092 23.5962 53.7881 23.9119 53.3048 24.1313C51.177 25.1005 48.9722 25.1684 46.7248 24.6601C44.6396 24.1881 42.7984 23.2457 41.1931 21.8787C41.0309 21.7414 40.8622 21.6088 40.5837 21.383C40.6902 22.5259 40.7164 23.5456 40.895 24.5401C41.3045 26.8243 41.0555 29.0832 40.8 31.3547C40.605 33.0943 40.4855 34.8417 40.3233 36.6886C40.51 36.5576 40.6263 36.4961 40.7164 36.4108C42.669 34.5939 44.9934 33.4589 47.6601 33.0375C49.5881 32.7328 51.4833 32.9222 53.2836 33.7383C53.7897 33.9688 54.0174 34.2987 53.9945 34.8481C53.9011 37.0928 52.9559 38.9917 51.4719 40.6666C50.0107 42.3178 48.1892 43.4859 46.2219 44.1946C46.9099 44.9208 47.6732 45.6343 48.3252 46.4315C49.8633 48.3178 50.738 50.4236 50.4809 52.8861C50.4121 53.5476 50.0795 53.8585 49.4456 54.0069C46.5315 54.6825 43.9647 53.8885 41.5731 52.3179C41.4077 52.2089 41.2488 52.0921 41.0162 51.9295C41.0031 52.1032 40.9687 52.2121 40.99 52.31C41.3979 54.2026 40.9441 56.0701 40.8065 57.9454C40.7656 58.5137 40.6869 59.0804 40.6132 59.6471C40.5362 60.239 40.2217 60.5263 39.5993 60.5279C36.8588 60.5358 34.12 60.5358 31.3795 60.5263C30.7489 60.5247 30.436 60.2169 30.3541 59.5097C30.2051 58.2185 30.133 56.9193 29.9397 55.6344C29.6465 53.688 30.0724 51.7875 30.2509 49.8743C30.6899 45.1844 31.1224 40.5008 30.5949 35.7873C30.3066 33.2048 30.0249 30.6191 29.8676 28.0271C29.7939 26.8211 30.0003 25.5962 30.1248 24.3823C30.6211 19.5409 31.1273 14.6995 30.667 9.82647C30.4065 7.06401 30.1297 4.30155 29.8463 1.54066C29.7841 0.92503 29.7841 0.355174 30.4295 0C33.8284 0.0031571 37.2241 0.0031571 40.6181 0.0031571ZM31.6924 1.79639C32.9832 10.0775 32.9865 18.3112 31.699 26.5638C34.2723 26.5638 36.7261 26.5638 39.3028 26.5638C38.0038 18.2843 38.03 10.0522 39.3011 1.79639C36.7098 1.79639 34.2838 1.79639 31.6924 1.79639ZM39.3093 53.2019C37.9973 44.9176 38.0055 36.6965 39.3093 28.4376C36.6983 28.4376 34.2592 28.4376 31.6924 28.4376C32.9881 36.7107 32.9783 44.9445 31.699 53.2019C34.2805 53.2019 36.7048 53.2019 39.3093 53.2019ZM40.1906 41.0786C40.3921 40.9697 40.5674 40.8813 40.7394 40.7818C42.7476 39.6121 44.7559 38.4408 46.7658 37.2727C46.9574 37.1622 47.1736 36.9807 47.3604 36.9996C47.7093 37.0375 48.1253 37.1133 48.3661 37.3264C48.697 37.62 48.6364 38.0572 48.317 38.3856C48.1532 38.5545 47.937 38.6808 47.7289 38.8023C45.5651 40.0667 43.3979 41.3264 41.2341 42.5893C41.0555 42.6934 40.8868 42.8118 40.646 42.9681C45.8828 43.9515 51.8781 39.5774 52.0485 35.1211C51.4751 35.0012 50.8887 34.807 50.2908 34.7676C46.3382 34.5055 43.239 36.0541 40.8573 39.0233C40.4052 39.5853 39.9089 40.1899 40.1906 41.0786ZM52.1844 22.6474C51.9698 21.9639 51.8372 21.282 51.5489 20.6679C50.1401 17.6687 47.647 15.9102 44.4217 15.0309C44.1137 14.9473 43.7648 14.8731 43.4634 14.9299C42.8393 15.0499 42.2333 15.2614 41.5518 15.4524C41.7828 15.5992 41.963 15.7208 42.1497 15.8297C43.9991 16.9078 45.8517 17.9844 47.7011 19.0641C47.8927 19.1762 48.0909 19.2867 48.2531 19.4319C48.566 19.7145 48.7183 20.1139 48.4398 20.4327C48.2253 20.679 47.8354 20.8432 47.4963 20.9063C47.285 20.9458 47.0082 20.75 46.7838 20.6222C44.8083 19.4793 42.8377 18.3254 40.8639 17.1778C40.6837 17.072 40.4953 16.9805 40.3102 16.881C40.2414 16.9236 40.171 16.9647 40.1022 17.0073C40.2823 17.5266 40.3642 18.106 40.6591 18.5543C42.0727 20.709 44.1465 22.065 46.6396 22.7911C48.4267 23.3104 50.2532 23.4036 52.1844 22.6474ZM40.3004 11.2772C40.5313 11.0925 40.7033 10.9614 40.8688 10.8225C42.076 9.82173 43.28 8.8162 44.4921 7.82171C45.0933 7.32763 45.665 7.34815 46.0253 7.85171C46.3333 8.28265 46.2252 8.7499 45.6977 9.19032C44.461 10.2195 43.2177 11.2409 41.9794 12.2669C41.4323 12.72 40.8901 13.1762 40.2774 13.6876C41.4617 13.7334 42.6575 13.4461 44.1481 12.5968C46.6249 11.1856 48.2744 9.18242 48.6511 6.34893C48.7576 5.55018 48.6724 5.46336 47.8485 5.43652C45.375 5.36075 43.375 6.34893 41.5551 7.88801C40.4773 8.80199 40.1578 9.88645 40.3004 11.2772ZM41.257 44.9934C41.4224 45.1402 41.5617 45.2712 41.7107 45.3943C43.013 46.4741 44.3185 47.5475 45.6158 48.6319C46.253 49.1639 46.3661 49.6501 45.9844 50.0968C45.6126 50.5341 45.0458 50.5025 44.4233 50.0053C44.235 49.8537 44.0531 49.6959 43.8664 49.5412C42.7722 48.6383 41.678 47.7353 40.5035 46.7661C40.5051 48.1584 40.5395 49.4054 41.8172 50.2073C41.868 50.2389 41.9057 50.2894 41.9532 50.3257C43.8861 51.8727 46.0434 52.7283 48.6282 52.3621C48.6495 52.231 48.6757 52.1379 48.6757 52.0432C48.6757 51.8664 48.6692 51.688 48.6479 51.5128C48.3612 49.2097 47.1032 47.4749 45.2964 46.0116C44.1072 45.0455 42.8164 44.6777 41.257 44.9934ZM31.7727 55.0787C31.9103 56.34 32.0397 57.5397 32.1707 58.7394C34.4181 58.7394 36.5984 58.7394 38.8425 58.7394C38.9653 57.5192 39.0849 56.3179 39.2094 55.0787C36.7081 55.0787 34.2854 55.0787 31.7727 55.0787Z" fill="#93000B"/>
<path d="M22.3375 0.00292969C22.8354 0.38336 22.8633 0.89481 22.8747 1.46782C22.9353 4.16241 22.991 6.85857 23.1598 9.54842C23.3105 11.9636 23.6774 14.3662 23.8035 16.7813C23.8674 18.0063 23.6184 19.2486 23.4972 20.483C23.0435 25.0514 22.5504 29.6181 22.9599 34.2148C23.2286 37.2346 23.5988 40.2465 23.7871 43.271C23.8674 44.5528 23.6069 45.8551 23.489 47.1479C23.1221 51.1669 22.6356 55.1811 22.8682 59.2301C22.9239 60.2088 22.611 60.5324 21.6167 60.534C19.3054 60.5356 16.9958 60.5356 14.6845 60.534C13.7524 60.5324 13.4117 60.212 13.4625 59.3201C13.6738 55.5489 13.279 51.8062 12.9203 48.0619C12.7418 46.2055 12.5845 44.3475 12.4141 42.4407C12.3028 42.507 12.1406 42.6048 11.9784 42.7011C9.6917 44.076 7.26247 44.728 4.5646 44.0965C3.93231 43.9482 3.58832 43.6577 3.51625 42.9916C3.2558 40.5969 4.07155 38.5243 5.55235 36.6758C6.22067 35.8423 7.0528 35.1304 7.84234 34.3332C7.71785 34.278 7.53275 34.188 7.34274 34.1106C4.53839 32.9567 2.36142 31.1351 0.965801 28.5005C0.374465 27.386 0.0419405 26.1974 0.000989252 24.9345C-0.0170293 24.3836 0.21066 24.0569 0.720094 23.8311C3.17062 22.7404 5.67028 22.7988 8.17978 23.5596C9.97345 24.1026 11.5771 24.9929 12.958 26.2353C13.0579 26.3252 13.1709 26.401 13.3724 26.5557C13.2741 25.3023 13.1988 24.1579 13.0907 23.015C12.9039 21.056 12.614 19.1018 12.5255 17.1381C12.4715 15.9305 12.7024 14.7087 12.8204 13.4948C13.2151 9.43792 13.6935 5.3842 13.4559 1.29734C13.4248 0.762212 13.5886 0.350211 13.9916 0.00450824C16.7746 0.00292969 19.556 0.00292969 22.3375 0.00292969ZM14.3634 17.8832C15.6509 26.1658 15.6542 34.4027 14.3667 42.6553C16.9663 42.6553 19.3906 42.6553 21.9836 42.6553C20.6634 34.3869 20.7125 26.1516 21.9656 17.8832C19.3906 17.8832 16.9663 17.8832 14.3634 17.8832ZM15.3479 1.79932C15.5264 6.59653 14.8778 11.2959 14.4584 16.0284C16.9614 16.0284 19.3972 16.0284 21.8788 16.0284C21.4464 11.2675 20.8124 6.56812 20.9762 1.79932C19.0859 1.79932 17.2562 1.79932 15.3479 1.79932ZM14.4502 44.4975C14.8925 49.26 15.5166 53.9751 15.3561 58.7171C17.2742 58.7171 19.1203 58.7171 20.9828 58.7171C20.8042 53.9278 21.466 49.2316 21.8722 44.4975C19.3644 44.4975 16.9434 44.4975 14.4502 44.4975ZM13.5968 31.0656C13.5116 30.4074 13.5935 29.8517 13.3658 29.4618C11.528 26.3063 6.84477 24.27 3.10837 24.9393C1.85526 25.1634 1.73732 25.3371 2.13209 26.5052C3.07234 29.2819 5.07403 31.1225 7.76044 32.3237C9.51152 33.1067 11.351 33.4082 13.3953 33.0735C13.1021 32.8889 12.9072 32.7578 12.7057 32.6394C10.6106 31.4176 8.51394 30.199 6.41887 28.9804C5.47699 28.4326 5.22965 27.9732 5.58347 27.435C5.93237 26.9046 6.46965 26.9125 7.40826 27.4586C8.63024 28.1706 9.85223 28.8841 11.0742 29.596C11.8539 30.0522 12.6353 30.5068 13.5968 31.0656ZM12.7352 35.1083C12.7155 35.0515 12.6959 34.9962 12.6762 34.9394C11.8949 34.9962 11.0333 34.8699 10.3469 35.1478C8.71378 35.8092 7.45904 36.982 6.51552 38.4343C5.73253 39.6387 5.26732 40.9363 5.33448 42.4407C5.76529 42.4833 6.16825 42.5701 6.5663 42.5575C9.02174 42.4722 11.0365 41.4556 12.727 39.7824C12.8073 39.7034 12.8793 39.5866 12.8908 39.4825C12.9727 38.7563 13.0366 38.0286 13.1201 37.1683C12.2372 37.8976 11.4673 38.5369 10.6925 39.1731C10.211 39.5677 9.74084 39.9813 9.23141 40.3412C8.80879 40.6395 8.35997 40.5622 8.02908 40.1833C7.69655 39.8029 7.72276 39.3814 8.07167 39.0089C8.24858 38.8195 8.45989 38.66 8.66137 38.4927C10.016 37.3625 11.3773 36.237 12.7352 35.1083Z" fill="#93000B"/>
</svg>
