<svg width="77" height="44" viewBox="0 0 77 44" fill="none" xmlns="http://www.w3.org/2000/svg">
<path d="M10.6112 20.8878C6.30239 16.0317 6.39742 8.1785 9.55725 3.6326C11.1858 1.29013 13.3089 0.00230466 16.324 0.0151401C31.0108 0.0771782 45.6998 0.107128 60.3866 0.00230466C64.4471 -0.0276448 67.0173 1.85703 68.4795 5.30336C70.784 10.7349 70.2959 15.9568 66.635 20.8899C67.1231 20.8899 67.5896 20.9134 68.0518 20.8856C70.9568 20.7188 73.0756 22.0622 74.648 24.3384C76.6156 27.1878 77.2117 30.3988 76.9374 33.7874C76.7257 36.4101 75.9719 38.8596 74.3175 40.9753C72.7516 42.9733 70.7559 43.9938 68.1339 43.9895C48.514 43.9552 28.8942 43.9403 9.27647 44.0023C6.09289 44.013 3.78403 42.7188 2.25056 40.1367C-0.704088 35.1629 -0.732165 30.0309 2.07345 24.9994C3.62421 22.2184 6.03457 20.6075 9.42982 20.8856C9.76891 20.9113 10.1123 20.8878 10.6112 20.8878ZM27.756 23.1233C28.2398 23.7886 28.6912 24.2956 29.0043 24.8753C29.2894 25.4016 29.6372 25.5363 30.2138 25.5363C38.54 25.5171 46.8683 25.5235 55.1944 25.5235C55.4644 25.5235 55.7344 25.5085 56.0022 25.5363C56.6328 25.5984 56.9827 25.9727 57.0108 26.5846C57.0389 27.237 56.6868 27.6435 56.0367 27.7505C55.7732 27.7932 55.4989 27.7676 55.229 27.7676C47.2786 27.7676 39.3305 27.7676 31.3801 27.7676C31.0734 27.7676 30.7689 27.7676 30.4406 27.7676C30.6717 29.0083 30.8791 30.1272 31.1015 31.3187C31.6976 31.3187 32.2851 31.3187 32.8726 31.3187C34.7581 31.3187 36.6458 31.3123 38.5313 31.3209C39.4449 31.3251 39.9827 31.7637 39.9849 32.4675C39.9849 33.182 39.4817 33.5778 38.5313 33.6034C38.3153 33.6099 38.0994 33.6056 37.8855 33.6056C35.838 33.6056 33.7884 33.6227 31.7408 33.5949C31.1922 33.5863 31.0259 33.7724 30.9352 34.303C30.7473 35.4004 30.5896 36.5363 30.162 37.5482C29.5572 38.9772 28.7192 40.3078 27.9763 41.6898C28.0454 41.6941 28.2225 41.7155 28.3974 41.7155C41.7905 41.7176 55.1836 41.7262 68.5767 41.6898C69.3434 41.6876 70.2181 41.4545 70.8531 41.0416C73.5032 39.3302 74.2657 36.6219 74.6696 33.6056C74.2138 33.6056 73.8704 33.6056 73.5292 33.6056C65.3909 33.6056 57.2527 33.6056 49.1145 33.6034C48.7927 33.6034 48.4665 33.6056 48.1469 33.5671C47.5227 33.4943 47.1663 33.1135 47.1404 32.5081C47.1123 31.8514 47.5141 31.4706 48.1382 31.3422C48.3974 31.2888 48.676 31.3166 48.9439 31.3166C57.162 31.3166 65.3823 31.3166 73.6004 31.3166C73.9179 31.3166 74.2354 31.3166 74.6501 31.3166C74.486 29.233 73.9547 27.3718 72.8251 25.6989C71.6696 23.9854 70.1188 23.0955 67.9547 23.1019C54.8855 23.1404 41.8164 23.1211 28.7452 23.1211C28.4536 23.1233 28.1642 23.1233 27.756 23.1233ZM65.7128 18.2073C65.2052 18.2073 64.8899 18.2073 64.5767 18.2073C53.905 18.2073 43.2333 18.2073 32.5616 18.2073C32.2657 18.2073 31.9676 18.2137 31.6739 18.1902C31.0518 18.1388 30.6804 17.803 30.6285 17.1783C30.5745 16.5087 30.946 16.1215 31.5659 15.9739C31.8467 15.9076 32.1555 15.9375 32.4514 15.9375C43.581 15.9354 54.7128 15.9354 65.8423 15.9354C66.162 15.9354 66.4817 15.9354 66.7754 15.9354C67.6782 13.7534 67.743 10.4889 67.0346 7.84692C66.8531 7.17092 66.5875 6.92276 65.8423 6.92704C57.4082 6.95699 48.9719 6.9463 40.5356 6.9463C40.2657 6.9463 39.9914 6.97411 39.7279 6.92918C39.1145 6.8265 38.7516 6.4179 38.7624 5.82533C38.7711 5.20281 39.1318 4.77924 39.8056 4.7172C40.0195 4.69795 40.2376 4.71078 40.4514 4.71078C48.4817 4.71078 56.514 4.71078 64.5443 4.71078C64.8251 4.71078 65.108 4.71078 65.5464 4.71078C64.3629 3.19192 63.0778 2.28916 61.2354 2.2913C47.9763 2.30199 34.7171 2.29772 21.4579 2.29772C21.203 2.29772 20.9482 2.29772 20.5357 2.29772C22.5896 4.73859 23.6804 7.40409 23.8726 10.4696C24.2462 10.4696 24.5637 10.4696 24.8834 10.4696C31.9439 10.4696 39.0043 10.4696 46.0648 10.4696C46.3348 10.4696 46.6048 10.4568 46.8726 10.4846C47.5033 10.5488 47.8596 10.9424 47.8899 11.535C47.9223 12.1789 47.54 12.5811 46.8985 12.6987C46.6631 12.7415 46.4147 12.7137 46.1728 12.7137C39.0583 12.7137 31.9439 12.7137 24.8294 12.7137C24.5141 12.7137 24.2009 12.7137 23.8596 12.7137C23.6868 15.8199 22.5551 18.4661 20.5529 20.8578C20.7884 20.8749 20.8877 20.8899 20.9871 20.8899C34.4622 20.8899 47.9374 20.8985 61.4125 20.8813C63.2721 20.8749 64.5594 19.831 65.7128 18.2073ZM2.36719 32.5445C2.36935 34.8207 2.8985 37.561 4.84667 39.8436C7.00434 42.3722 9.87043 42.3337 12.0108 39.7923C15.1447 36.07 15.2333 29.1046 12.1944 25.2882C9.88986 22.3938 6.72572 22.4366 4.51189 25.4123C3.07561 27.3419 2.49462 29.5603 2.36719 32.5445ZM21.5896 11.1178C21.5637 8.98714 20.9827 6.58048 19.4082 4.49258C17.2052 1.57465 13.9331 1.58962 11.7236 4.50328C8.84019 8.30686 8.83587 14.8487 11.7149 18.6394C13.946 21.5766 17.1426 21.598 19.3931 18.6865C19.622 18.3913 19.8294 18.0768 20.0173 17.7538C21.1318 15.837 21.5918 13.7512 21.5896 11.1178ZM28.7711 32.3156C28.7452 31.8792 28.7452 31.3701 28.6804 30.8673C28.3521 28.3794 27.5745 26.084 25.6415 24.3362C23.9331 22.7917 21.8531 22.7104 20.0842 24.1715C19.4341 24.7085 18.8747 25.393 18.4125 26.0968C17.378 27.6692 16.9158 29.4533 16.7732 31.308C16.5486 34.2645 17.0842 37.0626 18.9028 39.4864C21.149 42.477 24.3693 42.4407 26.6285 39.4607C26.676 39.3965 26.7192 39.3281 26.7646 39.2617C28.2182 37.1952 28.7344 34.857 28.7711 32.3156ZM13.4968 23.1532C14.229 24.2763 14.9158 25.3267 15.5788 26.3386C16.2635 25.2796 16.946 24.2271 17.6415 23.1532C16.2354 23.1532 14.8747 23.1532 13.4968 23.1532ZM15.5724 38.5109C14.8877 39.5698 14.216 40.603 13.5357 41.6556C14.9071 41.6556 16.2678 41.6556 17.6177 41.6556C16.9201 40.5817 16.2462 39.5463 15.5724 38.5109Z" fill="#93000B"/>
</svg>
