<svg width="15" height="16" viewBox="0 0 15 16" fill="none" xmlns="http://www.w3.org/2000/svg">
<g clip-path="url(#clip0_3_7359)">
<path d="M8.437 5.33503V4.51178C7.61083 3.44831 7.05712 2.18854 6.85204 0.843815C6.79052 0.448307 6.2954 0.293034 6.03759 0.600651C5.41943 1.33014 4.9331 2.18561 4.60497 3.13483C5.60693 4.2569 6.94872 5.02741 8.437 5.33503ZM11.7183 2.31159C10.4233 2.31159 9.3745 3.36335 9.3745 4.65827V6.3985C6.31591 6.21686 3.72021 4.33307 2.54833 1.6612C2.3872 1.29499 1.86865 1.27448 1.69872 1.63483C1.2124 2.66315 0.937005 3.81159 0.937005 5.02448C0.937005 7.0987 1.93603 9.03522 3.43017 10.4708C3.81689 10.8428 4.19482 11.1505 4.56982 11.4317L0.353997 12.4864C0.0405202 12.5655 -0.100105 12.9288 0.0756764 13.2012C0.585442 13.9893 1.84521 15.3253 4.56396 15.4366C4.79833 15.4454 5.03271 15.3604 5.21142 15.2051L7.12157 13.5616H9.3745C11.9643 13.5616 14.062 11.4669 14.062 8.87702V4.18659L14.9995 2.31159H11.7183ZM11.7183 5.12702C11.4604 5.12702 11.2495 4.91608 11.2495 4.65827C11.2495 4.40046 11.4604 4.18952 11.7183 4.18952C11.9761 4.18952 12.187 4.40046 12.187 4.65827C12.187 4.91608 11.9761 5.12702 11.7183 5.12702Z" fill="white"/>
</g>
<defs>
<clipPath id="clip0_3_7359">
<rect width="15" height="15" fill="white" transform="translate(0 0.436523)"/>
</clipPath>
</defs>
</svg>
