<svg width="49" height="64" viewBox="0 0 49 64" fill="none" xmlns="http://www.w3.org/2000/svg">
<g clip-path="url(#clip0_31_2714)">
<path d="M44.262 48.5373C43.8541 49.0374 43.4023 49.5247 43.0351 50.0732C42.919 50.2474 42.9441 50.625 43.0477 50.8412C44.8206 54.5326 44.7296 58.4983 44.6668 62.4544C44.6543 63.2837 44.0455 63.8645 43.3521 63.787C42.5613 63.6999 42.2758 63.203 42.2632 62.3898C42.235 60.2376 42.2162 58.0756 42.0436 55.933C41.9495 54.7456 41.5541 53.5807 41.2937 52.3997C39.7342 53.8421 38.3033 55.1554 36.8945 56.4913C36.7721 56.6074 36.7501 56.8979 36.7627 57.1011C36.8819 58.7694 37.0231 60.4344 37.1455 62.0994C37.1706 62.4189 37.2773 62.8739 37.1204 63.0352C36.7407 63.4289 36.2512 63.9 35.7648 63.9581C34.9584 64.0516 34.8078 63.2901 34.7513 62.6254C34.629 61.1572 34.5317 59.6858 34.4281 58.2918C22.7649 62.9481 12.0273 62.2737 2.38485 52.9483C2.38485 54.0776 2.38171 55.0489 2.38485 56.0202C2.39113 58.1789 2.40681 60.3376 2.40681 62.4963C2.40681 63.4547 1.94556 64.0419 1.20817 63.9968C0.35155 63.9451 0.012667 63.3643 0.012667 62.5609C0.00325356 58.308 -0.0187111 54.0551 0.028356 49.8022C0.0471829 48.1145 1.19876 47.0723 2.40995 46.1849C3.19127 45.6106 3.8 45.1136 3.84079 43.9617C3.88158 42.8517 4.63466 42.0062 5.67013 41.5932C8.7546 40.3638 11.8297 39.1118 14.9549 37.9986C16.1818 37.5597 17.3553 37.9728 18.2308 39.0699C20.763 42.2354 24.0671 43.1421 27.8984 42.6161C30.3364 42.2805 32.536 41.306 34.6039 40.0444C36.8066 38.702 38.865 38.6084 40.9579 40.2154C41.8585 40.9059 42.828 41.5029 43.7663 42.145C45.0214 43.0033 45.5862 44.2005 45.5297 45.7558C45.5172 46.0591 45.7462 46.4366 45.9721 46.669C46.4993 47.2143 47.1237 47.6628 47.6477 48.2114C48.564 49.1633 49.0127 50.3055 48.997 51.6834C48.9562 55.1941 48.9876 58.7081 48.9782 62.2188C48.9782 62.5964 49.0033 63.1159 48.7899 63.3224C48.4479 63.6515 47.8203 64.0387 47.4908 63.9129C47.0923 63.7612 46.6342 63.1062 46.6217 62.6577C46.5432 59.8568 46.5809 57.0527 46.5809 54.2487C46.5809 53.571 46.5809 52.8966 46.5746 52.219C46.562 50.1506 46.1949 49.5601 44.262 48.5373ZM39.4518 42.1805C38.3347 41.2834 37.384 41.2834 36.3328 41.8933C33.9355 43.2841 31.4692 44.5393 28.7111 44.9878C23.9102 45.7687 19.715 44.678 16.436 40.7478C16.2508 40.5284 15.7613 40.3541 15.5134 40.4477C12.6078 41.5158 9.71163 42.6193 6.82798 43.7519C6.01216 44.0714 5.87095 44.7555 6.46714 45.4331C8.87384 48.163 11.4374 50.7476 14.7133 52.3384C20.5433 55.1683 26.6432 55.4426 32.8435 53.8905C37.1361 52.816 40.2801 50.0829 42.7276 46.4076C43.4023 45.3944 43.2611 44.7555 42.2664 44.0617C41.9934 43.8713 41.6984 43.71 41.3627 43.5035C40.4339 44.4812 39.5961 45.4944 38.6265 46.3527C35.5923 49.0342 32.238 50.9799 28.0615 50.867C27.0763 50.8412 26.5303 50.4507 26.4989 49.7183C26.4675 48.9632 27.0857 48.4211 28.0239 48.3759C28.6797 48.3436 29.3449 48.3695 29.9881 48.2662C33.9512 47.6209 36.5085 44.7038 39.4518 42.1805ZM30.7475 56.9366C20.5182 58.3273 11.7198 55.6652 4.88882 47.1852C4.00082 47.9597 3.21637 48.6437 2.43819 49.3246C10.7377 59.7342 23.0065 60.0246 30.7475 56.9366Z" fill="#93000B"/>
<path d="M35.3631 2.77826C35.8683 2.19421 36.3421 1.71987 36.7312 1.181C37.5 0.112937 38.3692 0.296863 38.821 0.713118C39.414 1.2649 39.3074 1.92639 38.5292 2.8073C38.3409 3.02349 38.1558 3.24292 37.9738 3.46234C37.7918 3.68176 37.6129 3.90441 37.3776 4.19159C38.1934 5.02733 39.0814 5.7953 39.8063 6.6988C42.4828 10.0417 44.2431 13.7687 43.8948 18.241C43.6909 20.8708 42.4075 22.8811 40.2926 24.3654C40.0573 24.53 39.8847 24.9011 39.8314 25.2044C38.7488 31.6773 34.0766 36.5401 27.8544 37.6469C20.2358 38.9989 12.7019 33.6521 11.2554 25.8336C10.7125 22.894 10.951 20.0157 12.0586 17.2246C12.1936 16.8858 12.2783 16.3727 12.1277 16.0855C8.90514 10.0063 11.908 4.64011 16.9411 1.88444C20.4711 -0.0484024 24.271 -0.316225 28.1681 0.283956C30.6847 0.674397 33.0945 1.40042 35.3631 2.77826ZM37.5721 22.9553C37.5753 16.0468 32.2002 10.4612 25.5387 10.4515C18.874 10.4419 13.3483 16.0468 13.3294 22.8359C13.3106 29.6993 18.8175 35.443 25.4759 35.3978C32.4889 35.3526 37.6788 29.4089 37.5721 22.9553ZM13.8315 13.9203C18.0079 8.91237 23.1445 6.83755 29.304 8.57679C35.4918 10.3225 38.8806 14.8432 39.9977 21.4032C41.2967 20.019 41.7297 18.4572 41.5791 16.7502C41.1524 11.8778 38.6986 8.21216 34.9144 5.44358C31.4409 2.90088 27.4402 2.28133 23.3045 2.56852C20.6845 2.75244 18.2276 3.63336 16.1535 5.3855C13.5554 7.57648 12.3442 10.6839 13.8315 13.9203Z" fill="#93000B"/>
</g>
<defs>
<clipPath id="clip0_31_2714">
<rect width="49" height="64" fill="white"/>
</clipPath>
</defs>
</svg>
