<svg width="26" height="26" viewBox="0 0 26 26" fill="none" xmlns="http://www.w3.org/2000/svg">
<g clip-path="url(#clip0_1301_1405)">
<path d="M18.5552 1.16504H7.51808C3.95674 1.16504 1.07031 4.05198 1.07031 7.6128V18.6499C1.07031 22.2112 3.95725 25.0977 7.51859 25.0977H18.5546C22.116 25.0977 25.0029 22.2107 25.0029 18.6494V7.6128C25.0029 4.05146 22.116 1.16504 18.5546 1.16504H18.5552Z" stroke="#FF0000" stroke-width="0.75" stroke-miterlimit="10"/>
<path d="M13.0387 18.9084C16.2292 18.9084 18.8156 16.322 18.8156 13.1314C18.8156 9.94092 16.2292 7.35449 13.0387 7.35449C9.84815 7.35449 7.26172 9.94092 7.26172 13.1314C7.26172 16.322 9.84815 18.9084 13.0387 18.9084Z" stroke="#FF0000" stroke-width="0.75" stroke-miterlimit="10"/>
<path d="M20.0542 7.35445C20.7378 7.35445 21.2919 6.80028 21.2919 6.11668C21.2919 5.43308 20.7378 4.87891 20.0542 4.87891C19.3706 4.87891 18.8164 5.43308 18.8164 6.11668C18.8164 6.80028 19.3706 7.35445 20.0542 7.35445Z" fill="#FF0000"/>
</g>
<defs>
<clipPath id="clip0_1301_1405">
<rect width="25" height="25" fill="white" transform="translate(0.535156 0.535156)"/>
</clipPath>
</defs>
</svg>
