<svg width="26" height="26" viewBox="0 0 26 26" fill="none" xmlns="http://www.w3.org/2000/svg">
<g clip-path="url(#clip0_1301_1411)">
<path d="M13.0352 0.508789C6.12813 0.508789 0.507812 6.12754 0.507812 13.0354C0.507812 19.9432 6.12813 25.5619 13.0352 25.5619C19.9422 25.5619 25.5625 19.9432 25.5625 13.0354C25.5625 6.12754 19.9422 0.508789 13.0352 0.508789ZM13.0352 24.7275C6.58828 24.7275 1.34375 19.4822 1.34375 13.0354C1.34375 6.58848 6.58828 1.34316 13.0352 1.34316C19.482 1.34316 24.7266 6.58848 24.7266 13.0354C24.7266 19.4822 19.482 24.7275 13.0352 24.7275Z" fill="#FF0000"/>
<path d="M19.9046 9.16504C19.9912 9.00463 20.0627 8.83645 20.1179 8.6627C20.1434 8.5821 20.144 8.49565 20.1194 8.41475C20.0948 8.33386 20.0462 8.26232 19.9801 8.2096C19.914 8.15687 19.8335 8.12543 19.7491 8.11943C19.6648 8.11342 19.5806 8.13314 19.5077 8.17598C19.1074 8.41379 18.674 8.59098 18.2218 8.70176C17.6728 8.20627 16.9598 7.93158 16.2202 7.93066C15.8184 7.93097 15.4209 8.01241 15.0513 8.17009C14.6818 8.32777 14.3478 8.55844 14.0696 8.84829C13.7914 9.13813 13.5745 9.48118 13.432 9.85685C13.2896 10.2325 13.2244 10.6331 13.2405 11.0346C11.4835 10.8134 9.87907 9.9243 8.76006 8.55176C8.71719 8.49976 8.6624 8.45888 8.60034 8.43259C8.53829 8.40629 8.4708 8.39537 8.40362 8.40074C8.33644 8.4061 8.27155 8.42761 8.21446 8.46342C8.15737 8.49923 8.10976 8.5483 8.07569 8.60645C7.81946 9.04623 7.68018 9.54434 7.67116 10.0532C7.66213 10.5621 7.78365 11.0649 8.02413 11.5135C7.96515 11.5234 7.90849 11.5441 7.85694 11.5744C7.79377 11.6147 7.74176 11.6702 7.70572 11.7359C7.66967 11.8016 7.65075 11.8753 7.65069 11.9502C7.65069 12.8369 8.04522 13.651 8.68116 14.2041L8.65381 14.2314C8.6058 14.2858 8.57277 14.3516 8.55798 14.4226C8.54318 14.4936 8.54713 14.5672 8.56944 14.6361C8.70205 15.0498 8.92346 15.4295 9.21819 15.7487C9.51292 16.0678 9.87384 16.3187 10.2757 16.4838C9.45037 16.8864 8.52675 17.0434 7.61475 16.9361C7.521 16.9266 7.42674 16.9484 7.34672 16.9982C7.2667 17.0479 7.20545 17.1228 7.17256 17.2111C7.14098 17.3001 7.14039 17.3971 7.17088 17.4865C7.20137 17.5758 7.26115 17.6522 7.34053 17.7033C8.58038 18.4991 10.0228 18.9218 11.496 18.9213C16.3241 18.9213 19.2101 14.9994 19.2101 11.208L19.2093 11.0799C19.6772 10.7146 20.0836 10.2768 20.4132 9.78301C20.4631 9.70837 20.4876 9.61964 20.4832 9.52996C20.4787 9.44028 20.4455 9.35442 20.3884 9.2851C20.3314 9.21577 20.2535 9.16666 20.1664 9.14503C20.0792 9.12341 19.9874 9.13043 19.9046 9.16504ZM18.5413 10.5361C18.4846 10.5769 18.439 10.6312 18.4087 10.6941C18.3785 10.757 18.3644 10.8265 18.3679 10.8963C18.3726 10.9994 18.3749 11.1041 18.3749 11.2072C18.3749 14.5885 15.8022 18.0861 11.4968 18.0861C10.7289 18.0865 9.96642 17.9576 9.24131 17.7049C10.1097 17.5385 10.9256 17.166 11.6202 16.6189C11.6878 16.5656 11.7373 16.4927 11.762 16.4102C11.7866 16.3277 11.7851 16.2396 11.7577 16.1579C11.7304 16.0763 11.6785 16.0051 11.6091 15.954C11.5397 15.903 11.4563 15.8747 11.3702 15.8729C11.0334 15.8664 10.7027 15.7809 10.405 15.6232C10.1073 15.4655 9.85075 15.2401 9.65616 14.965C9.85381 14.9518 10.0476 14.9189 10.2358 14.8682C10.327 14.8438 10.4071 14.7892 10.4633 14.7134C10.5194 14.6376 10.5482 14.545 10.5449 14.4507C10.5417 14.3565 10.5065 14.2661 10.4453 14.1943C10.3841 14.1226 10.3003 14.0737 10.2077 14.0557C9.82727 13.9783 9.47502 13.7989 9.18864 13.5368C8.90227 13.2746 8.69256 12.9395 8.58194 12.5674C8.78975 12.6197 9.00303 12.6502 9.21631 12.6572C9.39991 12.6564 9.57022 12.5439 9.62725 12.3674C9.68428 12.1908 9.61709 11.9963 9.46163 11.8932C9.09403 11.6482 8.81099 11.2958 8.65117 10.884C8.49134 10.4722 8.46253 10.0212 8.56866 9.59238C9.92571 10.9848 11.7582 11.814 13.6999 11.9143C13.8374 11.915 13.9577 11.8658 14.0413 11.765C14.1249 11.6643 14.1569 11.5307 14.1273 11.4025C14.0204 10.9424 14.0682 10.4598 14.2632 10.0296C14.4583 9.59932 14.7897 9.24534 15.2062 9.02242C15.6227 8.79949 16.101 8.72005 16.5672 8.7964C17.0334 8.87274 17.4614 9.1006 17.7851 9.44473C17.8336 9.49648 17.8944 9.53503 17.962 9.55676C18.0295 9.5785 18.1014 9.58269 18.171 9.56895C18.2999 9.54316 18.4272 9.51348 18.553 9.4791C18.4963 9.52155 18.4374 9.56093 18.3765 9.59707C18.2955 9.6467 18.2338 9.72244 18.2016 9.81182C18.1694 9.9012 18.1686 9.99889 18.1993 10.0888C18.2301 10.1787 18.2905 10.2554 18.3707 10.3063C18.4509 10.3573 18.5461 10.3793 18.6405 10.3689L18.7827 10.351C18.7044 10.4155 18.6239 10.4772 18.5413 10.5361Z" fill="#FF0000"/>
</g>
<defs>
<clipPath id="clip0_1301_1411">
<rect width="25" height="25" fill="white" transform="translate(0.535156 0.535156)"/>
</clipPath>
</defs>
</svg>
