<svg width="26" height="26" viewBox="0 0 26 26" fill="none" xmlns="http://www.w3.org/2000/svg">
<g clip-path="url(#clip0_1301_1403)">
<path d="M12.1602 11.897L14.5989 13.0349L12.1602 14.1733V11.897ZM1.41016 13.0352C1.41016 6.61476 6.61476 1.41016 13.0352 1.41016C19.4555 1.41016 24.6602 6.61476 24.6602 13.0352C24.6602 19.4555 19.4555 24.6602 13.0352 24.6602C6.61476 24.6602 1.41016 19.4555 1.41016 13.0352ZM6.41016 13.0352C6.41016 14.1066 6.4159 14.9842 6.52769 15.6794C6.6411 16.3848 6.87161 16.9585 7.3632 17.3783C7.84284 17.7879 8.51897 18.005 9.41645 18.1277C10.3182 18.2509 11.4995 18.2852 13.0352 18.2852C14.5708 18.2852 15.7521 18.2509 16.6539 18.1277C17.5513 18.005 18.2275 17.7879 18.7071 17.3783C19.1987 16.9585 19.4292 16.3848 19.5426 15.6794C19.6544 14.9842 19.6602 14.1066 19.6602 13.0352C19.6602 11.9637 19.6544 11.0861 19.5426 10.3909C19.4292 9.6855 19.1987 9.11179 18.7071 8.69201C18.2275 8.28244 17.5513 8.06531 16.6539 7.94265C15.7521 7.81941 14.5708 7.78516 13.0352 7.78516C11.4995 7.78516 10.3182 7.81941 9.41645 7.94265C8.51897 8.06531 7.84284 8.28244 7.3632 8.69201C6.87161 9.11179 6.6411 9.6855 6.52769 10.3909C6.4159 11.0861 6.41016 11.9637 6.41016 13.0352Z" stroke="#FF0000" stroke-width="0.75"/>
</g>
<defs>
<clipPath id="clip0_1301_1403">
<rect width="25" height="25" fill="white" transform="translate(0.535156 0.535156)"/>
</clipPath>
</defs>
</svg>
